<svg xmlns="http://www.w3.org/2000/svg" width="97" height="20" viewBox="0 0 97 20" fill="none">
<path d="M0.238647 19.7226V6.32455H4.17632V19.7226H0.238647ZM2.20748 4.16089C1.57109 4.16089 1.04408 3.96671 0.626448 3.57836C0.208816 3.17152 0 2.67221 0 2.08044C0 1.50717 0.208816 1.01711 0.626448 0.610264C1.04408 0.203421 1.57109 0 2.20748 0C2.86376 0 3.39077 0.203421 3.78852 0.610264C4.20615 1.01711 4.41497 1.50717 4.41497 2.08044C4.41497 2.67221 4.20615 3.17152 3.78852 3.57836C3.39077 3.96671 2.86376 4.16089 2.20748 4.16089Z" fill="url(#paint0_linear_672_4400)"/>
<path d="M17.5512 19.7226V12.0388C17.5512 11.2436 17.2828 10.5964 16.7458 10.0971C16.2089 9.59778 15.5128 9.34813 14.6576 9.34813C14.1008 9.34813 13.6036 9.45908 13.1661 9.681C12.7286 9.90291 12.3806 10.2173 12.122 10.6241C11.8834 11.031 11.7641 11.5025 11.7641 12.0388L10.2427 11.3176C10.2427 10.2635 10.4813 9.34813 10.9586 8.57143C11.4558 7.77624 12.132 7.15673 12.9871 6.7129C13.8622 6.26907 14.8466 6.04716 15.9404 6.04716C16.9944 6.04716 17.939 6.29681 18.7743 6.79612C19.6096 7.27693 20.2658 7.91493 20.7431 8.71012C21.2204 9.48682 21.4591 10.3282 21.4591 11.2344V19.7226H17.5512ZM7.85622 19.7226V6.32455H11.7641V19.7226H7.85622Z" fill="url(#paint1_linear_672_4400)"/>
<path d="M26.7683 19.7226V0.74896H30.6761V19.7226H26.7683ZM23.3974 9.51456V6.32455H34.047V9.51456H23.3974Z" fill="url(#paint2_linear_672_4400)"/>
<path d="M36.4628 19.7226V6.32455H40.3706V19.7226H36.4628ZM40.3706 12.3162L38.8493 11.3731C39.0283 9.72723 39.5453 8.43273 40.4005 7.4896C41.2556 6.52797 42.4886 6.04716 44.0995 6.04716C44.7955 6.04716 45.422 6.15811 45.9788 6.38003C46.5357 6.58345 47.0428 6.92557 47.5002 7.40638L45.0541 10.0139C44.8353 9.79195 44.5668 9.62552 44.2486 9.51456C43.9503 9.40361 43.6023 9.34813 43.2046 9.34813C42.3693 9.34813 41.6832 9.59778 41.1462 10.0971C40.6292 10.5779 40.3706 11.3176 40.3706 12.3162Z" fill="url(#paint3_linear_672_4400)"/>
<path d="M54.709 20C53.3964 20 52.2132 19.6949 51.1591 19.0846C50.1051 18.4743 49.2798 17.6422 48.6832 16.5881C48.0866 15.534 47.7882 14.3504 47.7882 13.0374C47.7882 11.706 48.0866 10.5132 48.6832 9.45908C49.2798 8.40499 50.1051 7.57282 51.1591 6.96255C52.2132 6.35229 53.3964 6.04716 54.709 6.04716C55.7431 6.04716 56.6679 6.24133 57.4833 6.62968C58.2986 7.01803 58.945 7.56357 59.4223 8.2663C59.9195 8.95053 60.1879 9.72723 60.2277 10.5964V15.423C60.1879 16.3107 59.9195 17.0966 59.4223 17.7809C58.945 18.4651 58.2986 19.0106 57.4833 19.4175C56.6679 19.8058 55.7431 20 54.709 20ZM55.4249 16.6435C56.5187 16.6435 57.4037 16.3107 58.0799 15.6449C58.7561 14.9607 59.0941 14.0823 59.0941 13.0097C59.0941 12.307 58.935 11.6875 58.6168 11.1512C58.3185 10.5964 57.891 10.1711 57.3341 9.87517C56.7972 9.56079 56.1608 9.40361 55.4249 9.40361C54.709 9.40361 54.0726 9.56079 53.5158 9.87517C52.9788 10.1711 52.5512 10.5964 52.233 11.1512C51.9347 11.6875 51.7856 12.307 51.7856 13.0097C51.7856 13.7309 51.9347 14.3689 52.233 14.9237C52.5512 15.46 52.9788 15.8853 53.5158 16.1997C54.0726 16.4956 54.709 16.6435 55.4249 16.6435ZM58.8853 19.7226V16.1165L59.5118 12.8433L58.8853 9.62552V6.32455H62.7633V19.7226H58.8853Z" fill="url(#paint4_linear_672_4400)"/>
<path d="M73.24 20C71.7683 20 70.4458 19.6949 69.2725 19.0846C68.0992 18.4743 67.1744 17.6422 66.4982 16.5881C65.8221 15.534 65.484 14.3504 65.484 13.0374C65.484 11.706 65.8221 10.5132 66.4982 9.45908C67.1744 8.40499 68.0992 7.57282 69.2725 6.96255C70.4657 6.3338 71.7882 6.01942 73.24 6.01942C74.3736 6.01942 75.4177 6.21359 76.3722 6.60194C77.3268 6.99029 78.1522 7.54508 78.8482 8.2663L76.3424 10.6241C75.9646 10.2358 75.5071 9.9399 74.9702 9.73648C74.4531 9.53306 73.8764 9.43134 73.24 9.43134C72.5241 9.43134 71.8777 9.58853 71.301 9.90291C70.7442 10.1988 70.2967 10.6149 69.9586 11.1512C69.6404 11.669 69.4813 12.2885 69.4813 13.0097C69.4813 13.7124 69.6404 14.3412 69.9586 14.896C70.2967 15.4323 70.7442 15.8576 71.301 16.172C71.8777 16.4679 72.5241 16.6158 73.24 16.6158C73.8963 16.6158 74.483 16.5141 75 16.3107C75.537 16.0888 75.9944 15.7744 76.3722 15.3675L78.9079 17.7254C78.172 18.4651 77.3268 19.0291 76.3722 19.4175C75.4177 19.8058 74.3736 20 73.24 20Z" fill="url(#paint5_linear_672_4400)"/>
<path d="M83.224 19.7226V0.74896H87.1318V19.7226H83.224ZM79.8531 9.51456V6.32455H90.5027V9.51456H79.8531Z" fill="url(#paint6_linear_672_4400)"/>
<path d="M94.5837 20C93.8678 20 93.2811 19.7781 92.8237 19.3343C92.3663 18.8904 92.1376 18.3449 92.1376 17.6976C92.1376 17.0504 92.3663 16.5049 92.8237 16.061C93.2811 15.6172 93.8678 15.3953 94.5837 15.3953C95.2798 15.3953 95.8565 15.6172 96.3139 16.061C96.7713 16.5049 97 17.0504 97 17.6976C97 18.3449 96.7713 18.8904 96.3139 19.3343C95.8565 19.7781 95.2798 20 94.5837 20Z" fill="url(#paint7_linear_672_4400)"/>
<defs>
<linearGradient id="paint0_linear_672_4400" x1="48.5" y1="0" x2="48.5" y2="22.1111" gradientUnits="userSpaceOnUse">
<stop stop-color="white"/>
<stop offset="0.340257" stop-color="#E1E1E1"/>
<stop offset="0.592938" stop-color="#D2D2D2"/>
<stop offset="1" stop-color="#AEAEAE"/>
</linearGradient>
<linearGradient id="paint1_linear_672_4400" x1="48.5" y1="0" x2="48.5" y2="22.1111" gradientUnits="userSpaceOnUse">
<stop stop-color="white"/>
<stop offset="0.340257" stop-color="#E1E1E1"/>
<stop offset="0.592938" stop-color="#D2D2D2"/>
<stop offset="1" stop-color="#AEAEAE"/>
</linearGradient>
<linearGradient id="paint2_linear_672_4400" x1="48.5" y1="0" x2="48.5" y2="22.1111" gradientUnits="userSpaceOnUse">
<stop stop-color="white"/>
<stop offset="0.340257" stop-color="#E1E1E1"/>
<stop offset="0.592938" stop-color="#D2D2D2"/>
<stop offset="1" stop-color="#AEAEAE"/>
</linearGradient>
<linearGradient id="paint3_linear_672_4400" x1="48.5" y1="0" x2="48.5" y2="22.1111" gradientUnits="userSpaceOnUse">
<stop stop-color="white"/>
<stop offset="0.340257" stop-color="#E1E1E1"/>
<stop offset="0.592938" stop-color="#D2D2D2"/>
<stop offset="1" stop-color="#AEAEAE"/>
</linearGradient>
<linearGradient id="paint4_linear_672_4400" x1="48.5" y1="0" x2="48.5" y2="22.1111" gradientUnits="userSpaceOnUse">
<stop stop-color="white"/>
<stop offset="0.340257" stop-color="#E1E1E1"/>
<stop offset="0.592938" stop-color="#D2D2D2"/>
<stop offset="1" stop-color="#AEAEAE"/>
</linearGradient>
<linearGradient id="paint5_linear_672_4400" x1="48.5" y1="0" x2="48.5" y2="22.1111" gradientUnits="userSpaceOnUse">
<stop stop-color="white"/>
<stop offset="0.340257" stop-color="#E1E1E1"/>
<stop offset="0.592938" stop-color="#D2D2D2"/>
<stop offset="1" stop-color="#AEAEAE"/>
</linearGradient>
<linearGradient id="paint6_linear_672_4400" x1="48.5" y1="0" x2="48.5" y2="22.1111" gradientUnits="userSpaceOnUse">
<stop stop-color="white"/>
<stop offset="0.340257" stop-color="#E1E1E1"/>
<stop offset="0.592938" stop-color="#D2D2D2"/>
<stop offset="1" stop-color="#AEAEAE"/>
</linearGradient>
<linearGradient id="paint7_linear_672_4400" x1="48.5" y1="0" x2="48.5" y2="22.1111" gradientUnits="userSpaceOnUse">
<stop stop-color="white"/>
<stop offset="0.340257" stop-color="#E1E1E1"/>
<stop offset="0.592938" stop-color="#D2D2D2"/>
<stop offset="1" stop-color="#AEAEAE"/>
</linearGradient>
</defs>
</svg>